<svg xmlns="http://www.w3.org/2000/svg" width="374.816345" height="563.486287" viewBox="0 0 99.170158 149.08908"><path style="line-height:.85;-inkscape-font-specification:NSimSun" d="M.39688 0v2.38022h1.58647c1.32225 0 2.24819.26433 2.77709.79323.5289.52891.79322 1.3224.79322 2.38022v56.72522c0 1.05781-.26432 1.85131-.79322 2.38021-.5289.52891-1.45484.79324-2.77709.79324H0v2.38022h17.45425v-2.38022h-1.98387c-1.05781 0-1.98322-.26433-2.77657-.79324-.52893-.5289-.79325-1.3224-.79325-2.38021V33.321479h23.404277V62.27889c0 1.05781-.26482 1.85131-.79375 2.38021-.52893.52891-1.45434.79324-2.77659.79324H29.75116v2.38022h17.453707v-2.38022h-1.98334c-1.05781 0-1.98321-.26433-2.77657-.79324-.5289-.5289-.79324-1.3224-.79324-2.38021V5.55367c0-1.05782.26434-1.85131.79324-2.38022.79336-.5289 1.71876-.79323 2.77657-.79323h1.58699V0H30.14753v2.38022h1.586967c1.32225 0 2.24766.26433 2.77659.79323.52893.52891.79375 1.3224.79375 2.38022v25.387599H11.90056V5.55367c0-1.05782.26432-1.85131.79325-2.38022.79335-.5289 1.71876-.79323 2.77657-.79323h1.58699V0zm49.585077.00052v2.3797h3.17294c1.0578 0 1.98374.26484 2.77709.79375.52891.52891.79322 1.32189.79322 2.3797v62.27889h2.38022l30.14753-59.10544h.79322v53.55177c0 1.05781-.26432 1.85131-.79322 2.38021-.79336.52891-1.71876.79324-2.77657.79324h-3.17346v2.38022h15.86723v-2.38022h-3.17342c-1.32229 0-2.2482-.26433-2.7771-.79324-.5289-.5289-.79324-1.3224-.79324-2.38021V5.55367c0-1.05781.26434-1.85079.79324-2.3797.5289-.52891 1.45481-.79375 2.7771-.79375h2.37967V.00052h-11.50367l-26.97406 51.96479h-.79325V5.55367c0-1.05781.26435-1.85079.79325-2.3797.5289-.52891 1.45431-.79375 2.77656-.79375h3.17347V.00052zm24.59384 71.33931c-6.87578 0-12.2968 3.17347-16.26359 9.52035-3.96682 6.08242-5.95053 14.4126-5.95053 24.99072 0 12.4293 2.24806 21.28864 6.74375 26.5777 4.49572 5.28907 9.65243 7.93388 15.47037 7.93388h3.17347c.79335 0 1.32252-.13242 1.58697-.39687 1.85118 4.4957 3.30523 7.14001 4.36306 7.93336 1.32228.79336 2.64491 1.19011 3.96719 1.19011 1.85116 0 3.43765-.79299 4.75991-2.3797 1.32228-1.32227 2.38008-3.57034 3.17346-6.74377l-1.58647-.79324c-.26445 1.32227-.79364 2.24767-1.58699 2.77658-.79336.52891-1.71876.79323-2.77657.79323-.79335 0-1.58686-.39675-2.38022-1.19011-.79335-.79336-1.45444-2.11551-1.98334-3.96668 3.17344-2.38008 5.81774-5.9503 7.93337-10.71045 2.38006-4.76015 3.57031-11.76817 3.57031-21.02404 0-11.10703-2.11563-19.56911-6.3469-25.38707-4.23124-6.08242-9.52037-9.124-15.86725-9.124zM1.587 72.13358v2.37971h2.37969c1.32225 0 2.24819.26484 2.77709.79375.5289.5289.79322 1.32188.79322 2.37969v56.72522c0 1.05781-.26432 1.85131-.79322 2.38022-.5289.5289-1.45484.79323-2.77709.79323H1.587v2.38022h18.24694v-2.38022h-2.37969c-1.05783 0-1.98374-.26433-2.7771-.79323-.52892-.52891-.79324-1.32241-.79324-2.38022V105.8509h9.12347l13.090677 34.11472h11.10681v-2.38023h-2.38022c-.79335 0-1.58633-.13191-2.37969-.39635-.5289-.52891-1.05809-1.3224-1.58699-2.38021L28.95793 105.45454c3.702347-.52891 7.007707-2.24781 9.916687-5.15679 2.90902-2.90899 4.36356-7.00838 4.36356-12.29744 0-5.28905-1.71889-9.25551-5.15678-11.90004-3.17344-2.64454-7.801497-3.96669-13.883897-3.96669zm72.988797 1.98335c5.28908 0 8.99171 2.77672 11.10735 8.33024 2.38008 5.28905 3.56981 13.09006 3.56981 23.40373 0 7.66914-.52867 13.88419-1.58647 18.64434-.79336 4.49571-2.11603 7.40433-3.96719 8.7266-1.32228-4.49571-2.90875-7.80108-4.75993-9.91671-1.58671-2.38007-3.96669-3.57032-7.14013-3.57032-2.64454 0-4.62825.66108-5.95053 1.98334-1.32228 1.05782-2.51201 2.77671-3.56981 5.15679-.79338-1.58672-1.45444-4.0986-1.98335-7.53649-.26445-3.70234-.39687-8.19848-.39687-13.48755 0-10.57812 1.32215-18.51154 3.96669-23.80061 2.64451-5.28906 6.21477-7.93336 10.71043-7.93336zm-57.121547.39636h4.36303c5.0246 0 8.72728 1.32266 11.107337 3.96719 2.38006 2.38007 3.56981 5.81789 3.56981 10.31358 0 5.02461-1.32215 8.72674-3.96668 11.10682-2.644507 2.38008-5.949927 3.57032-9.916717 3.57032h-8.72712V77.68673c0-1.05781.26432-1.85079.79324-2.37969.79336-.52891 1.71927-.79375 2.7771-.79375zm53.551767 49.1882c2.11561 0 3.70208 1.32267 4.75991 3.9672 1.0578 2.38008 1.98321 5.55356 2.77656 9.52035-.26445.26445-.79311.39635-1.58647.39635h-2.38022c-2.64451 0-4.89206-.66108-6.74325-1.98334-1.85118-1.58672-2.77709-3.30562-2.77709-5.15679 0-2.38007.66109-4.09897 1.98334-5.15679 1.58671-1.05781 2.90939-1.58698 3.96722-1.58698z" font-weight="400" font-size="101.55" font-family="NSimSun"/></svg>